<svg width="425.13" height="118.45" version="1.1" viewBox="0 0 425.13 118.45" xmlSpace="preserve" xmlns="http://www.w3.org/2000/svg" xmlnsCc="http://creativecommons.org/ns#" xmlnsDc="http://purl.org/dc/elements/1.1/" xmlnsRdf="http://www.w3.org/1999/02/22-rdf-syntax-ns#" xmlnsSvg="http://www.w3.org/2000/svg">
 <g transform="matrix(1.3333 0 0 -1.3333 0 118.45)">
  <g transform="scale(.1)">
   <g fill="#231f20">
    <path d="m0 590.49v293.41h42.871v-257.3h108.91v-36.114h-151.78"/>
    <path d="m340.86 789.1c-6.765 17.5-12.968 36.125-17.492 50.227h-0.562c-3.95-14.68-9.59-32.727-16.938-50.227l-39.488-101h113.42zm75.594-198.62-24.805 65.45h-137.13l-25.379-65.45h-42.879l115.66 293.41h47.957l113.98-293.41h-47.414"/>
    <path d="m704.24 590.49-120.18 183.4c-12.969 19.18-24.844 40.613-33.867 59.246h-0.571c1.137-19.754 2.27-42.316 2.27-76.746l0.554-165.9h-41.75v293.41h55.864l118.5-181.13c12.414-18.613 24.824-39.492 35.546-59.824h0.547c-1.113 20.332-2.234 54.746-2.234 103.28l-0.566 137.68h42.324v-293.41h-56.438"/>
    <path d="m914.68 851.19c-13.559 0-30.492-0.567-44.59-1.704v-223.43c10.164-0.575 28.777-1.7 41.746-1.7 72.234 0 122.45 35.547 122.45 113.42 0 75.039-40.044 113.42-119.61 113.42zm-7.91-261.82c-32.715 0-56.997 1.125-79.575 1.125v293.41c24.282 0 62.649 1.133 94.243 1.133 97.612 0 157.98-42.883 157.98-144.45 0-103.26-73.34-151.22-172.65-151.22"/>
    <path d="m1300.6 590.49-126.97 145v-145h-42.88v293.41h42.88v-138.23l125.84 138.23h53.61l-132.04-141.63 137.68-151.78h-58.12"/>
    <path d="m1486.5 852.31c-14.11 0-23.14-0.567-31.6-1.688v-98.746c9.03-0.57 21.45-1.133 33.29-1.133 38.92 0 63.77 20.875 63.77 53.598 0 32.176-25.42 47.969-65.46 47.969zm73.34-261.82-103.26 130.33h-1.68v-130.33h-42.89v293.41c17.49 0.567 45.71 1.133 80.12 1.133 67.17 0 104.39-26.515 104.39-75.617 0-51.914-40.06-81.824-94.22-84.613 7.91-7.91 16.92-19.2 26.52-31.067l85.21-103.25h-54.19"/>
    <path d="m1670.1 590.49v293.41h159.69v-33.281h-116.81v-92.547h111.72v-32.742h-111.72v-100.41h116.81v-34.434h-159.69"/>
    <path d="m1906.5 590.49v293.41h42.89v-293.41h-42.89"/>
    <path d="m2083.8 585.98c-23.15 0-49.09 3.386-65.47 7.336l1.7 41.199c18.07-7.344 42.9-12.434 69.39-12.434 32.75 0 68.29 14.113 68.29 52.492 0 63.766-145.57 33.848-145.57 127.52 0 52.461 42.3 86.324 113.98 86.324 18.05 0 42.31-2.242 59.81-5.648l-2.26-37.805c-16.36 4.519-41.74 8.469-59.81 8.469-45.69 0-67.15-18.625-67.15-46.262 0-63.203 146.72-33.289 146.72-128.11 0-58.106-54.16-93.086-119.63-93.086"/>
    <path d="m917.94 353.34v-63.75h99.302v-55.86h-99.302v-116.8h-72.793v293.41h177.74v-57.004h-104.94"/>
    <path d="m1216.8 111.86c-89.15 0-131.48 41.739-131.48 108.32v190.17h72.79v-173.78c0-45.157 21.43-64.336 62.62-64.336 44.59 0 62.08 24.824 62.08 67.148v170.97h71.65v-180.01c0-65.43-41.19-118.48-137.66-118.48"/>
    <path d="m1417.6 116.93v293.41h72.78v-229.09h95.37v-64.316h-168.15"/>
    <path d="m1744.8 352.77c-10.72 0-24.26-0.546-34.4-1.679v-173.22c6.76-1.152 19.74-1.699 32.72-1.699 52.47 0 90.28 29.902 90.28 89.16 0 57.539-29.9 87.441-88.6 87.441zm-9.02-237.54c-39.51 0-71.1 1.133-98.17 2.246v292.86c26.51 0.562 78.42 1.695 114.52 1.695 95.38 0 158.57-40.633 158.57-143.35 0-106.62-76.17-153.46-174.92-153.46"/>
    <path d="m2086.9 290.16c-5.07 13.535-10.72 30.469-14.1 43.438h-0.57c-3.38-12.969-7.9-28.203-12.96-41.739l-25.97-71.113h79zm60.94-173.22-18.04 51.347h-113.43l-18.63-51.347h-73.34l108.9 293.41h86.32l108.36-293.41h-80.14"/>
    <path d="m2410 497.3c-0.52-23.34-5.33-185.12 26.71-258.48 0 0 81.02-224.59 349.39-238.83l20.4 0.17578c111.83-0.39062 202.81 63.379 211.21 67.012 58.86 42.032 109.21 100.68 136.82 164.38 20.41 49.238 32.35 103.08 33.63 159.63v338.38c-1.28 50.43 1.15 104.24 0 154.65h-778.21l0.05-386.91"/>
   </g>
   <path d="m3058.5 850.76c2.47-5.969-7.16-11.965 1.24-15.594 2.48-1.176 7.29-1.176 8.44-3.586 1.2-3.594-2.39-2.375-3.67-3.594-2.29 1.219-4.77 1.219-7.12 1.219-3.66-3.66-4.89-8.379-3.66-12.07 2.42-7.149 8.49-10.723 14.45-13.153 6.03 0 14.4 0 18.05 6.004 0 2.395 2.38 4.707 4.73 7.149 2.45 0 3.62-2.442 4.82-3.535-1.2-2.5 1.19-4.871 2.35-7.188 4.91-2.43 14.45 0 14.45-7.215-6-1.222-9.54 4.785-14.45 2.5-9.52-1.347-14.32-10.937-21.49-13.379-3.63 0-5.99 2.442-8.46 3.688l-10.79 5.969-19.23 8.437c-15.6 3.574-29.97 8.281-45.59 9.504-2.34 8.379-3.65 16.844-9.63 22.879-2.43 2.402-3.57 4.816-5.97 7.277 5.97-1.281 9.59-8.496 16.83-4.875 5.97-2.402-1.23-8.437 3.55-11.992 3.63-4.91 8.36-7.277 14.45-6.062 5.98 2.402 16.79 3.711 16.79 13.308l-3.64 9.621c3.64 4.688 8.49-2.461 13.21-2.461 7.21 2.461 10.75 12.059 19.23 9.598l1.11-2.449" fill="#fbc707"/>
   <path d="m3041.7 794.41c8.4-6.094 21.68-6.094 26.44-16.836-4.76-1.191-12.03-2.441-13.31-7.168-2.37-2.402 0-4.84 2.52-5.996 3.58 0 8.4 1.156 11.99 0 2.44-7.281-1.2-14.472-4.87-19.191-4.77-8.473-16.76 4.719-15.6-7.285 2.43-4.786 7.24-5.993 12.06-5.993 4.82 1.207 8.41-1.195 10.85-3.605 2.39-4.801 5.93-7.184 9.56-9.547-2.39-8.418-14.35-1.23-16.87-8.418-3.54-9.648 4.87-15.605 6.14-24.062h-85.23c3.5 7.207 11.93 13.281 20.29 14.414 7.22 3.625 13.31 10.84 14.45 19.179 0 3.633 1.21 12.039-2.38 15.661-5.98-2.415-3.57-9.606-5.98-14.411-2.42-6.054-8.48-9.589-13.26-10.781-9.62 0-19.17-2.41-26.31 1.192-10.82 1.152-20.46-5.977-30.06-2.442 0 3.594-2.44 9.668 3.53 10.781 15.71 1.25 32.46-1.113 49.3 1.25 4.77 3.633 4.77 9.594 4.77 15.594-1.23 4.871 2.46 11.945-3.66 14.442-11.93 1.253-23.88-2.497-36-2.497-7.14-2.339-17.94-3.472-25.19 0-3.55 3.75-5.96 8.438-3.55 13.247 2.35 3.628 12 2.472 9.52 9.664-4.8 1.152-13.08-1.196-11.93 7.152 1.18 1.242 4.76 0 7.13 0 17.97 7.199 43.28 2.344 52.83 23.996 6.08 4.852 14.4 1.23 21.67 2.422 9.57-4.824 21.61-4.824 31.15-10.762" fill="#fff"/>
   <path d="m2826.9 793.23v-1.223c-2.35-1.246-4.83 1.223-7.11 2.406v1.16c2.28 0 5.87 0 7.11-2.343" fill="#fff"/>
   <path d="m3021.3 775.13c0-1.227-1.21-2.379-2.35-2.379-6.09-2.348-8.43 8.344-14.43 2.379-4.82-3.531-10.79-4.727-15.67-2.379-2.36 4.82-11.95 3.629-9.55 9.605 2.34 5.957 9.55 7.246 14.43 8.399 11.91 0 23.98-4.805 27.57-15.625" fill="#231f20"/>
   <g fill="#fff">
    <path d="m2874.9 784.72c-1.14 0 0 1.23 1.3 2.441 0-1.211 0-2.441-1.3-2.441"/>
    <path d="m2842.5 778.75c1.25-7.152-7.22-9.598-3.58-15.652 1.2-5.973 6.06-8.352 9.64-11.914 8.36-2.497 16.75 1.253 22.83 5.941 1.08 4.809-6.08 7.281-2.36 12.027 2.36 3.598 7.17 2.446 10.7 1.25 9.6-12.004-14.42-15.656-9.65-27.593-1.05-22.911 11.58-38.458 24.75-56.543l-44.61 0.039c6.07 15.761-12.5 26.406-14.94 40.863-7.18 8.391-10.74-12.074-19.14-4.828-2.43 5.992 1.21 9.597 3.64 14.402 7.11 2.442 19.14 0 20.34 10.789 0 7.215-3.55 12-5.97 19.219-2.34 2.402-9.61 0-8.5 6 0 2.379 1.24 6 4.86 7.242 3.64 1.102 9.61 4.727 11.99-1.242"/>
    <path d="m3148.5 743.98c2.69-6.043 3.72-12.036 3.72-19.192 1.14-14.414-2.81-26.094-7.24-38.476h-18.66c0 6.093-0.67 9.687-0.67 14.414-1.17 11.992-3.56 22.812-5.92 32.425 2.36-2.402 3.55-9.613 9.65-7.191 2.43 3.609 1.17 10.789 1.17 15.66-2.35 4.735-3.6 10.824-8.46 14.36-1.14 3.558-5.92 4.839-8.35 8.433 4.71 3.594 11.91 1.156 16.81-1.308 7.19-4.7 13.17-11.914 17.95-19.125"/>
   </g>
   <path d="m3011.8 745.22c1.13-3.602 0-8.473-2.42-10.84-4.79 2.367-1.19 9.598-3.67 13.156-1.12 5.965-13.14 10.867-4.73 15.567 7.21-2.286 9.61-10.661 10.82-17.883" fill="#231f20"/>
   <g fill="#ed1c24">
    <path d="m2919.4 734.38h8.36c19.19-1.231 39.52 2.367 58.75 4.809 2.36-1.254 1.16-3.625 1.16-6.04l-1.16-1.207c-16.79 1.207-33.59-1.195-50.47-1.195-8.28 0-20.38-3.574-27.57 2.402-4.77 3.598-3.63 9.665-3.63 15.543h1.29c3.63-4.714 5.97-13.128 13.27-14.312"/>
    <path d="m3069.9 686.31c1.31-3.594 4.27-13.184-1.76-14.375-2.39 0-5.96-2.364-5.96-5.996 0-4.786 1.2-9.61 1.2-15.665 2.37-7.128 9.59-11.953 5.96-20.293-2.35-3.613-8.41-6.054-7.16-12.089l3.62-4.746h-127.34c3.67 1.21 6.03 7.207 6.03 10.781-2.36 7.168-10.81 1.25-15.57 2.441-2.35 1.238-2.35 3.613-2.35 5.969l3.53 2.488 27.6 1.133c3.67 1.133 5.97 3.633 7.26 5.977 1.19 8.339-8.46 10.8-8.46 18.007 4.87-2.363 8.46 1.211 12 3.555 6.06 3.613 3.69 12.051 9.62 15.664 2.35 1.172 4.19 4.258 2.95 6.543l3.07-1.777 1.24 2.383h84.52"/>
    <path d="m2894.8 686.27c7.55-16.036 23.32-26.329 35.3-37.09 0-2.442 1.23-3.633 0-4.825-7.16-1.21-16.75 2.383-21.62-6.035-1.14-3.496 1.29-7.226 3.63-9.59l13.22-15.585h-27.6c-3.65 7.207-10.86 4.746-15.59 5.91-1.2-1.164-2.44-2.219-3.55-2.219 4.74 9.531 9.46 19.121 7.11 31.062-3.56 1.282-8.4-1.16-10.83-1.16-4.82 0-9.59-2.383-14.42-1.191 0 3.633 6.14 5.937 7.26 9.543 2.34 8.406 1.29 16.844 1.29 24.07-7.32 3.613-15.66 1.172-21.66 0-2.39 1.172 1.66 4.746 2.85 7.149l44.61-0.039"/>
    <path d="m3145 686.31c-2.44-11.973-7.24-28.731-8.36-40.762-2.44-9.59-3.59-22.774-7.24-32.402h-10.93c6.03 20.488 7.87 50.41 7.87 73.164h18.66"/>
   </g>
   <g fill="#fff">
    <path d="m3152.2 651.48c-2.48-2.304-3.72-5.937-5.97-7.129 1.03 3.543 0 7.129 3.49 8.379 1.18 0 3.62 0 2.48-1.25"/>
    <path d="m2925.3 613.14c1.24-3.594-2.39-5.977-4.87-7.227-4.79-2.344-11.98-1.25-14.32-6.035-4.78-7.18 3.63-11.895 1.2-16.778-4.78-2.375-8.38-4.726-13.26-3.562-3.54 3.562 2.48 5.984 2.48 10.75 2.4 7.305 3.62 15.625 1.17 22.852h27.6"/>
    <path d="m3065.8 613.14c1.25-1.211 3.54-3.594 3.54-5.977 2.44-12.031-4.87-27.625 4.83-38.379 1.13 0 1.13-1.191 1.13-2.488-5.96-2.383-11.92 4.832-14.37-2.383-3.58-9.602 0-19.191 2.45-27.609-7.27-2.364-12.08 4.921-18.05 7.238-8.35 5.933-11.93 13.183-16.78 21.621-2.46 1.133-6.03 0-7.22-1.25-7.16-4.746-7.16-14.438-6.12-21.621h-1.04c-10.89 7.183-14.44 18.016-15.67 31.277 0 1.192-2.43 2.383-3.54 2.383-8.44-1.191-13.29-10.789-18.03-18.008-2.37-1.219-2.37 1.223-2.37 2.364-2.37 10.82 1.14 21.64-2.37 32.39-2.46 3.723-7.23 1.242-9.76 0-3.49-3.523-8.41-8.348-13.13-9.598-2.34 6.075 1.19 15.606-7.17 19.2-6.08-2.422-3.67-10.762-10.8-13.125-3.56-2.45-9.62-1.192-13.21 1.113-2.45 0-4.77 2.41-2.45 4.844 7.27 2.461 15.66 7.168 20.38 15.605l2.41 2.403h127.34"/>
    <path d="m3120.4 530.33c0.2 0.391 0.37 0.82 0.53 1.301-1.22 11.914-1.22 26.316 1.14 39.5 1.19 6.074 1.19 10.82 2.39 18.047 1.17 7.246 4.9 23.965 4.9 23.965h-10.93c-2.28-5.977-2.28-12.012-3.53-18.008l-2.38-14.407c0-17.136-3.28-34.285 1.58-50.417l6.3 0.019"/>
    <path d="m2965 573.57c-2.53-13.261 0-28.847 11.97-36.062 8.45-1.203 4.74 7.215 7.21 11.968 1.24 2.415 3.54 7.25 7.2 8.469 3.62-10.808 11.94-19.16 18-27.629h-98.62l2.63 4.817c6.06 13.215 15.57 25.176 22.7 38.437h2.41c-1.1-2.441 1.23-4.785 3.67-5.976 6.01 1.191 13.15 4.738 17.94 10.781 3.6 2.351 3.6-2.422 4.89-4.805"/>
    <path d="m3027.4 548.35c4.77-6.055 11.93-10.84 15.6-18.032h-15.6c-2.48 4.817-4.87 11.977-1.3 19.16l1.3-1.128"/>
   </g>
   <path d="m3027.4 530.32h15.6c3.62-3.609 15.47-1.121 17.94-8.406 0-21.601-0.59-43.699 6.62-62.859h-95.84l-17.69 30.457c-2.29 5.996 3.68 9.582 8.41 15.683 8.53 1.153 18.04 2.305 26.45 3.496 4.88 1.18 3.65 4.883 3.65 8.411 0 2.371-1.19 6.062-3.65 7.246-14.32-2.434-28.81-2.434-39.58-9.621-16.82-12.012-29.89-28.731-46.74-38.348l-3.6-4.887c-6.08-1.179-10.91-7.625-14.49-12.437l-29.51-0.039c2.53 3.621 3.2 10.105 0.68 13.738-1.07 1.211-3.49 2.375-4.72 1.211-5.97-2.473-3.58 5.976-7.2 8.348-4.83 2.433-13.24 0-11.94 7.199 2.34 3.613 7.11 4.773 10.69 3.613 8.45-1.184 8.45-10.812 15.69-13.184 8.43-1.191 18.01-2.382 23.98 6.055 9.53 13.098 21.42 29.863 28.58 44.324h98.62c2.42-4.746 8.4-9.59 13.18-10.847 0 0 10.43 0.39 4.87 10.847" fill="#ed1c24"/>
   <path d="m3120.4 530.33c-1.27-4.812 2.53-14.355 4.9-16.758 6.57-6.582 11.26-8.379 18.4-9.66 1.21-15.164-2.22-30.809-0.19-44.851-4.49-8e-3 -5.38-8e-3 -8.71-0.02-2.32 9.871-5.7 19.211-9.17 28.145-3.56 11.906-7.44 20.722-10.73 34.726l-0.59 8.406 6.09 0.012" fill="#ed1c24"/>
   <path d="m3168.7 376.78c-3.57-1.25-8.17 1.094-9.36 3.555-3.54 5.938 1.19 12.012 0 19.285 0 9.531-2.4 17.91-2.4 26.262-3.58 6.023-1.14 14.465-2.38 20.469-2.34 21.535-3.17 46.648 14.14 65.105v-134.68" fill="#176fc1"/>
   <g fill="#fff">
    <path d="m2824.5 500.31c-1.19-2.344-3.62-6.028-5.99-4.805-1.2 0-2.41 0-2.41 1.277 2.41 2.309 4.78 3.528 8.4 3.528"/>
    <path d="m2884.5 459.06c3.58-6.028-1.14-11.567 0-17.563l2.4-16.804c0-5.965-3.54-10.665-8.28-11.883-4.86-1.274-9.59 0-14.47 2.351-4.76 7.188 4.88 10.723 3.59 17.942-2.43 4.812-7.26 8.394-12.07 10.808-11.92 3.582-20.39-14.336-32.32-4.812-2.43 2.398 0 6.023 1.19 7.254 7.27 8.398 16.72-1.231 25.21 4.773l5.24 7.895 29.51 0.039"/>
    <path d="m3067.6 459.06c8.38-27.532 21.02-55.969 31.82-82.336h-87.61c-7.21 15.625-13.26 32.429-19.23 49.16-2.34 2.434-2.34 6.023-3.65 8.43l-4.74 9.597-12.43 15.149h95.84"/>
    <path d="m3143.7 457.09c0-13.184 3.56-26.328 3.56-38.367 1.22-14.375 3.64-28.879 1.22-42.004h-11.88c4.67 24.004 3.51 54.043-1.28 78.027-0.18 1.582-0.58 2.078-0.58 4.309 1.11 0 4.2 0 8.77 8e-3 0.32-1.028 0.07-0.79 0.19-1.973"/>
    <path d="m2999.7 376.72h-9.54c1.15 2.363 3.57 4.726 5.88 6.035 1.24 0 3.66-3.672 3.66-6.035"/>
   </g>
   <path d="m3099.4 376.72c1.2-6.035 3.63-15.606 2.35-21.582 3.57-4.766 7.21-10.899 14.45-10.899l8.31 3.711c6.07 7.188 9.89 20.391 12.22 28.77h11.8c0-13.203-9.51-26.348-14.32-37.227l-12.09-8.418c-7.17-7.148-20.37-13.301-19.09-25.332h-94.85c-16.81 10.801-39.65 12.207-58.85 6.153-3.64-1.172-6.18-3.692-9.81-6.075h-67.75c-2.38 3.575 1.99 13.301-6.46 12.129-1.16-2.441-4.83-2.441-7.12-2.441 3.52 4.824-1.27 11.953 1.2 16.797 3.53-1.231 9.64 0 10.69 4.785 3.68 7.148-3.46 24.023 10.89 22.773 23.91-8.32 50.39-3.535 76.76-1.191 9.59 4.844 22.94 9.629 32.49 18.047 43.84 0.058 109.18 0 109.18 0" fill="#ed1c24"/>
   <path d="m3103 305.74c7.16-9.648 0-19.043-1.28-27.519-2.35-2.364 0-7.149-3.63-7.149-7.17 6.035-11.9-3.554-17.95-5.937-15.67-11.992-21.68-28.614-25.31-45.41h-52.64c-3.69 3.496-1.25 11.836-3.69 16.562-1.19 1.25 0 4.766-2.43 4.766-4.73 1.25-13.17-1.172-14.4 4.824 2.47 2.441 8.52 2.441 10.86 6.035 14.38 10.762 15.62 28.887 16.81 44.414 0 4.727-0.04 5.723-1.19 9.414h94.85" fill="#fff"/>
   <path d="m2939.5 305.82c-3.57-7.148-10.57-15.488-11.72-23.847-1.2-7.207-2.44-14.453 2.33-20.45l7.26-9.609c0-2.402-3.68-1.211-4.88-1.211-3.56 0-8.35 3.535-10.77 0-4.83-9.648 1.23-19.14 7.21-27.617l-0.2-3.164-94.99 0.039c-2.4 2.344-6.87 3.125-9.22 1.914l-1.19-1.152c-2.43 2.363 2.3 4.746 3.54 7.187 3.62 2.383 7.26 2.383 10.83 1.192 2.4-3.633 6.03-4.844 9.65-7.227 3.58 1.211 7.23 0 10.82 3.594 3.52 2.441 2.29 7.207 2.29 10.82-1.09 7.227-15.5 8.438-9.53 16.856 1.23 3.535 5.97 3.535 8.44 4.765 2.32 0 3.53-3.672 4.76-4.765-1.23-4.825-3.67-10.84 0-15.606 2.47-3.633 5.93-5.976 10.75-7.246 4.83 0 9.6 0 12 4.746 7.21 9.688 3.67 21.641-1.17 31.27-4.76 11.914-17.39 25.175-13.96 39.511 24.11 0.157 67.75 0 67.75 0" fill="#fff"/>
   <g fill="#176fc1">
    <path d="m2795.9 867.46h254.59c-3.61-2.402-12.39-8.293-12.39-9.512-5.96-2.285-13.21 1.219-19.14-2.285-4.81-2.461-6.09-7.313-7.22-10.879-1.21-5.996 8.36-3.594 5.98-9.625-2.53-2.406-5.98-2.406-8.4-1.176-2.43 2.461-1.19 8.371-4.79 12.082-3.61 7.137-13.21 4.688-20.41 5.907-7.21 1.23-15.64 5.976-21.71-1.219-1.06-1.211-2.36-3.59-1.06-5.969 9.59-5.996 22.77-14.461 20.3-28.875-2.34-5.93-2.34-14.219-10.71-16.719-7.29-5.968-18.03-4.785-26.47-5.968-8.44-3.622-20.36 2.343-26.37-4.911-6.01-7.218 0-16.714 2.34-23.906 0-6.008-1.05-13.222 2.48-18.058-1.23-1.133-3.53 0-4.82 0-4.77 4.836-1.24 19.214-11.98 16.75-7.18-1.164-9.58-9.602-10.83-14.411-1.23-8.316 1.25-16.75 8.4-22.734 6.06-8.398 18-3.613 26.39-7.168 3.58-3.691 1.23-9.668 2.38-14.441 3.57-6.008 8.37-8.352 14.48-8.352 9.54 0 18 5.957 28.74 4.727 0 0 2.42-1.133 2.42-2.383 0-3.574-2.42-7.149-5.93-7.149-4.9-4.882-12.12 1.192-18.17-2.441-1.09-5.977 1.26-13.203 7.35-18.008 0-2.441-2.43-1.172-3.67-2.441-5.97-1.192-12.04 10.859-15.57 1.269 0-8.418 3.53-14.48 7.17-20.39-2.34-1.282-5.97 2.304-8.45 4.785-13.08 9.531-22.73 24.023-34.71 34.785-7.18 11.973-16.84 21.621-22.81 33.594 0 8.402-6.03 15.59-1.19 22.875 3.56 4.719 9.53 9.531 9.53 16.719l-1.13 8.468-6.07 9.59c2.4 9.609-3.53 16.824-9.6 22.754 0 1.23-1.14 3.66-2.43 4.852-2.39 1.125-5.85 1.125-7.16 0-1.16-1.192 0-2.43 0-3.622 1.31-2.285-1.16-6.007 1.31-8.41 2.41-8.406-7.23-14.472-10.95-21.664v-11.968c-1.07-1.122-3.49-1.122-4.72 0-1.2 4.816 4.72 10.816 2.42 16.816-2.42 5.969-8.39 12.004-14.45 14.473-4.77 3.593-7.11 9.523-12.03 11.945l-2.35 3.555c-12.19 2.656-18.92 3.671-28.59 2.371v56.367"/>
    <path d="m3168.7 661.74c-1.2-2.375-4.55-1.797-5.74-1.797-4.37 0-9.6 2.372-12.04 7.168 3.64 9.649 5.23 11.231 8.42 22.911 3.62 17.941 8.39 40.726-2.4 58.671-7.2 10.844-16.81 22.911-28.74 27.692-10.93 1.191-21.66 0-31.27-5.977-2.39-2.402-7.15-5.996-6.01-9.59 3.62-4.839 8.45-1.281 13.17-2.414 4.84-1.273 10.83-4.902 12.08-9.711-4.83 0-9.63 2.497-13.17 0-7.26-5.878 3.54-11.945 4.71-17.945 3.63-9.594 7.21-21.625 7.21-32.406 0-12.031 1.25-21.504 0-33.652-1.18-11.954-2.38-22.754-4.76-34.708-3.62-1.25-6.07 1.114-9.65 1.114-9.59 0-17.97 5.996-21.56 14.453-1.24 5.937-5.98 10.781-4.78 16.766 3.54 3.625 7.17 0 12.02 1.183 8.35 3.613 20.35 8.438 20.35 20.43-2.45 4.824-9.61 0-13.17 2.383-7.18 3.711-14.42 6.074-18.07 14.414 2.41 5.957 9.66 4.863 14.48 8.398 3.59 4.785 10.73 9.668 8.31 18.051-3.55 3.574-11.9 0-15.55 4.769-4.83 7.247-1.2 15.594-1.2 25.188 1.2 9.625-1.2 22.867 9.58 28.824 7.17 4.805 18.01 7.274 27.53 2.363 1.28 0 2.5 2.442 2.5 4.911 1.14 8.468-4.78 15.5-10.79 20.371-7.16 2.316-8.44 9.543-14.42 13.254-5.96 3.476-10.78-1.309-15.6-4.926-2.43-3.543-4.84-8.328-9.53-8.328-2.47 0-6.14 0-6.14 3.535-1.09 2.441 1.28 3.691 2.52 3.691 3.62-1.25 7.18-2.441 9.61 0 3.54 3.469 1.11 9.504 0 14.34-1.3 3.629-7.26 4.793-8.46 9.625-2.39 7.188-0.41 16.68-5.17 22.676h105.73s-0.18-190.02 0-205.73"/>
    <path d="m2816.1 784.72c-2.43-5.969-5.99-14.317-2.43-21.621 3.64-3.567 8.35-7.125 13.18-7.125 2.48-1.227 2.48-3.536 2.48-6.039-3.72-2.403-8.45-1.247-12.02-2.403-5.96-3.558-12.05 0-16.79-1.183l-4.61 0.644v43.453c-1.15 0 0.95 0.309 2.15 1.555 6.01 0 15.61 0 18.04-7.281"/>
    <path d="m2795.9 723.83c1.2 1.192 3.3 3.344 4.61 3.344 1.12-3.637 2.42-7.27 3.55-9.613 2.45-5.996 8.42-9.598 14.44-9.598 4.8-1.281 8.34 5.945 13.26 4.754 3.47-7.129 10.69-15.496 5.91-25.098 0-4.844-9.62-3.691-5.91-9.629 5.91-8.418 14.31-9.687 23.86-8.418 1.25 1.172 4.81 0 4.81-2.461-1.09-8.339-5.88-16.836-14.36-20.371-2.37-1.191-1.14-2.383 0-4.804 7.25-8.301 16.8-8.301 27.64-8.301-1.29-6.028-3.68-13.281-10.84-14.578-1.21 0-4.73-1.164-6-2.219 0-3.691 3.56-6.094 4.79-8.535 7.32-5.996 18.02-2.383 26.37-1.133 2.49-4.863 0-12.031-2.35-16.875-1.23-7.188-9.53-4.766-11.97-10.75 0-3.586 5.97-4.777 8.41-8.41 8.4-4.832 21.57-3.535 28.74 1.203 3.66 2.43 7.24 8.394 12.06 6.043 2.39-1.172 1.19-4.805 0-7.246-15.6-23.992-28.86-47.969-46.77-70.82-4.81-3.528-8.46-9.622-14.49-6.028-3.52 4.809-7.11 10.91-11.96 12.063-8.49-1.153-14.47 3.523-20.38 4.843-13.23 0-25.26-8.476-30.12-20.5 0-9.597 13.28-2.402 18.1-7.214 3.57-5.918 7.19-16.7 16.8-17.981 2.42-1.16 7.11 0 8.35-2.398-5.93-4.785-15.61 2.398-20.44-3.567-10.67-7.258-5.92-19.187-11.91-27.629-1.14-7.214-1.14-14.375 2.38-20.371 2.41-2.383 4.82-6.004 9.53-4.843 2.48 3.683 1.29 8.468 2.48 12.035 2.35 8.379 10.74 5.965 17.96 9.59 3.62 1.257 7.25 4.785 12.1 3.589 1.07-4.8-6.04-10.769-1.23-16.746 6.02-4.785 4.82-12.07 3.55-18.066 0-5.899 2.47-12.031 8.39-15.645 2.43-1.113 6.08-2.363 8.45 0 2.44 4.825 0 10.899 3.57 15.645 6.03 8.437 18.01 12.058 19.26 22.765 3.62 9.715-4.89 15.672-2.48 24.051 9.63 14.407 24.04 22.871 33.69 36.035l11.92 8.348c4.8-3.543 4.8-11.91 9.61-16.797 5.98-14.402 20.43-24.004 27.63-38.394 5.97-9.535 8.45-20.293 11.95-31.164 2.46-9.59-5.98-15.664-13.18-20.489-9.55-4.726-19.2-8.3-30.04-10.683-11.98-1.231-22.72-1.231-33.55-1.231-9.55-2.383-18.03 0-25.24 4.805-10.7 1.25-20.28-2.383-26.42-11.973-9.53-11.992-8.3-27.715-15.5-40.82-4.86-3.594-10.83-2.422-16.88-2.422-2.45-1.172-1.21-4.785-1.21-5.918 7.26-10.898 19.23-15.723 32.5-14.492 3.53-3.613 2.32-10.82 5.92-15.664 4.77-10.781 13.31-20.371 14.42-32.344 0-2.383 0-7.187-3.53-7.187-2.44 2.363-1.3 7.187-2.44 10.722-2.37 12.071-15.57 13.282-21.58 22.871-3.62 3.692-8.43 4.864-14.46 4.864-5.91-2.422-14.37-7.207-16.8-14.453 1.14-8.477 13.23 0 16.8-7.227 1.2-6.055 0-13.164 3.54-19.238 1.24-2.325 4.86-3.516 6.11-6.016-6.11 1.25-9.65 7.266-15.56 6.016-6.16 0-9.75-2.325-13.26-4.766-9.54 1.25-16.82-3.008-22.73-10.215 0 0 0.13 495.33 0.13 497.75"/>
    <path d="m3168.7 524.94c-1.2-7.253-12.9-1.777-17.78-5.468-3.64 0-7.2-3.496-10.79-1.192-11.93 18.028-7.1 42.032-5.95 63.672 2.44 14.473 4.81 26.348 9.54 39.57 4.78 9.571 14.06 20.645 24.8 26.602 0-47.551 0.18-123.18 0.18-123.18"/>
    <path d="m3107.7 611.91c-3.62-9.609-3.62-21.621-5.99-31.184-1.21-13.132-1.21-25.195-1.21-38.433 1.21-34.797 20.44-63.547 25.14-95.949 3.73-22.785 2.55-49.258-1.17-72.012-2.39-4.805-3.53-8.477-6.03-11.973-9.52 10.782-8.29 26.328-15.45 38.36-9.63 15.554-14.43 32.375-19.23 50.398-7.17 15.656-11.99 33.625-11.99 51.594-1.17 5.976-1.17 12.012 0 18.015 3.52 3.618 11.99 1.184 11.99 8.469-3.63 7.11-14.43 9.59-14.43 19.153 0 2.351 1.27 5.964 4.83 7.183 5.97-1.219 10.79 1.195 16.75 2.414 2.45 1.223 6.01 1.223 8.45 4.778-1.28 7.168-8.45 4.871-12.03 8.406-4.8 2.441-8.39 7.246-8.39 11.972l2.39 26.446c6 3.594 15.59 1.191 20.38 7.285 1.28 0 3.57 2.219 5.99 1.055v-5.977"/>
    <path d="m3168.7 359.9c-4.76-41.191-18.3-83.007-26.17-105.66-11.98-31.504-20.24-47.949-35.89-69.492-15.53-26.465-37.3-45.742-58.93-67.226-6.01-4.786-10.73-9.61-16.85-14.454-10.74-9.5504-22.71-16.738-34.79-25.117-5.88-2.4804-8.26-5.2929-16.74-9.707-13.18-8.3203-27.6-14.356-41.97-21.543h-2.48c0 4.7461 4.81 8.4375 7.25 13.223 7.17 7.1289 20.3 15.547 16.81 27.598-2.44 5.9961-3.66 13.184 0 19.16 8.35 10.84 20.39 19.218 31.25 27.597l7.12 2.442c13.24 0 25.21-7.246 38.47-2.442 3.54 3.633 11.93 4.727 11.93 12.051-3.61 1.172-7.19 2.324-9.59 4.824 11.98-1.211 22.81 1.055 32.49 5.996-1.27 8.418-14.5 6.016-15.78 14.356 7.35 1.152 13.31 1.152 19.34 4.785 4.78 3.672 13.17 6.094 14.4 13.203-2.38 4.766-9.62 3.574-13.27 7.207-3.52 2.403-9.55 4.746-9.55 10.801-2.37 16.758 4.86 33.555 16.79 44.414 4.8 1.231 8.38 8.379 13.2 5.996 5.98-4.765 14.42-2.344 21.53-2.344 2.46 0 1.18 3.477 0 4.727-3.53 3.594-7.11 8.398-4.73 14.473 5.91 7.207 7.19 16.738 10.74 26.289 1.2 6.015-2.33 14.453 3.67 18.066 9.67 3.574 15.58 14.395 21.55 22.774 2.42 7.207 4.86 17.968 14.46 21.621 4.81 0 5.74-3.614 5.74-3.614"/>
    <path d="m2996.1 297.48c3.66-5.976 0-14.433-1.11-21.621-1.2-7.168-6.08-14.336-13.29-17.949-4.74-1.23-13.17 5.977-14.38-2.344-2.33-7.246 1.21-14.511 6.02-18.027 4.81-2.5 8.36-5.976 14.37-7.246 2.51-4.824 1.2-13.164 1.2-19.141-1.2-15.586-15.57-25.273-26.45-36.054-10.7-10.821-23.97-19.2-37.1-23.946-7.21-3.652-14.45-2.5-20.48 2.403-5.89 5.937-15.55 7.187-23.91 4.726-3.64 0-7.21-4.726-11.94-4.726-8.55 1.133-16.85-2.403-21.66-8.496-2.39-3.555-3.62-8.34-2.39-13.164 1.14-2.422 3.58-3.594 5.97-2.422 8.44 7.246 18.08-1.172 25.25-3.575 5.97-2.441 10.7 2.403 16.71-1.21 1.2-1.231 0-3.692 0-4.727-6.01-3.691-13.18-4.883-15.58-12.051-3.57-3.633-3.57-8.4569-3.57-13.183-4.73-7.2071-12.05-14.414-9.61-25.274 2.47-6.0351 4.88-13.144 12.05-15.566 2.42-1.1914 4.77 0 4.77 2.4219-2.35 3.6133-2.35 8.3008-1.24 10.742 9.6 12.07 25.15 12.07 33.65 26.465 1.19 1.211 2.32 2.4414 4.77 2.4414 2.34-4.8632 0-9.6289 0-14.394 2.34-6.0937 3.59-13.32 1.29-20.508 0-5.918 2.3-11.914 7.16-16.758l-1.24-1.25c-37.28-11.973-75.61-26.328-118.8-25.098h-10.84v190.72c3.53 4.922 9.58 4.922 14.43 4.922 7.2-3.711 13.2-9.707 21.66-7.305-3.71-5.937-6.16-12.031-6.16-17.969-5.87-7.246-9.51-18.066-5.87-26.386 1.14-3.653 4.76-4.786 8.32-6.036 6.05 0 3.71 8.379 8.47 11.973 5.93 3.633 15.61-1.25 20.35 4.785 8.39 6.055 1.27 20.41 14.47 20.41 3.51 0 7.23-3.574 10.78-7.187 5.91-3.496 11.94-8.34 20.42-9.59 13.11 1.25 26.36 2.422 34.8 13.203 1.1 1.25 1.1 3.574 0 4.766-2.48 1.308-6.03 2.441-7.26 4.844 2.38 3.554 8.36 1.25 13.23 3.554 7.16 2.442 14.37 8.496 19.1 15.703 0 3.516 0 7.11-3.49 8.34-6.01-1.23-13.28-3.613-19.25 0-2.33 3.594-7.21 7.207-6.01 10.84 9.65 1.191 20.34 2.344 25.26 11.973 0 1.191 0 3.633-1.24 4.726-5.97 3.672-14.37 3.672-16.85 12.071-2.39 8.457-1.16 17.988 3.64 25.195 10.79 10.801 27.7 10.801 42.03 9.551 3.67 0 6.01-1.075 9.55-3.575"/>
   </g>
   <path d="m2845 269.94c-2.48-2.421-6.06 0-8.41 1.133 2.35 1.192 7.18 2.442 8.41-1.133" fill="#fff"/>
   <path d="m2809 225.47c0-1.211-1.27-2.383-1.27-2.383h-1.18c1.18 1.172 1.18 2.383 2.45 2.383" fill="#fff"/>
   <path d="m2909.8 205.1c-1.29-3.653 1.11-7.188 4.77-8.399 1.13 0 2.34-2.441 2.34-3.633 0-1.23-2.34-1.23-3.53-1.23-7.21 0-13.17 2.422-20.47 3.73-8.41 4.786-15.58 15.586-26.29 11.934-9.7-3.613-13.25-13.242-15.67-21.621-4.83-3.496-8.45-5.918-13.23-4.805-2.44 2.364 0 3.672 0 4.805-2.44 4.863-1.15 9.687 1.2 14.473 1.2 3.535 9.16 8.007 11.64 11.601l-16.8 8.008c32.2 0 59.75 0 94.99-0.039l-18.95-14.824" fill="#ed1c24"/>
   <path d="m3054.8 219.73c-3.66-6.016-1.14-17.071 0-23.028 1.28-3.633 4.87 0 4.87-3.633-1.24-2.324 1.23-5.937-1.24-5.937-6 0-13.13 1.191-17.94-2.383-5.94-3.672-5.94-10.898-5.94-16.875-4.86-2.305-8.49 1.309-12.06-2.305-2.4-3.632-2.4-8.418-1.19-12.011 1.19-3.614 8.39-6.055 4.76-9.688l-13.2 1.192c-7.22 4.882-20.36 3.593-28.75 0h-44.45c10.8 7.148 28.81 20.507 39.64 28.789 13.2 10.898 20.4 29.121 22.86 45.879h52.64" fill="#ed1c24"/>
   <g fill="#fff">
    <path d="m2831.8 173.85-2.44-2.344c-1.27 1.152-1.27 3.594 0 4.785 1.14 0 1.14-1.191 2.44-2.441"/>
    <path d="m2915.7 139c9.66-2.285 15.66 3.672 24.02 6.055h44.45l-2.47-3.555c-11.94-12.031-31.18-20.508-33.53-38.438 0-8.3394 7.14-21.504-4.81-27.597-3.64-1.25-8.45-3.6329-12-1.25-2.41 2.4804-3.56 4.9023-3.56 7.3437 0 5.957 4.71 10.703 2.33 15.488-2.33 4.8832-7.16 7.2262-10.69 8.4182-4.87 2.441-8.53 0-12.07-1.192-5.98-4.8239-7.16-14.375-15.67-12.011-2.37 0-3.62 1.25-4.8 2.461-1.17 2.3242-2.4 5.9764 0 8.3394 4.8 4.844 12.09 3.614 15.69 10.84 2.29 3.614 2.29 9.551 1.15 13.223-3.53 4.766-7.15 7.148-10.83 9.59-6.01 2.285-13.18-3.633-16.71 2.285 0 6.055 7.16 7.324 10.7 9.648 13.31 3.555 16.84-13.125 28.8-9.648"/>
    <path d="m2864.1 145.06c1.16-2.383 0-4.805-1.23-4.805h-7.25c2.52 3.613 4.81 6.074 8.48 4.805"/>
    <path d="m2882.2 82.773c-2.44-2.4609-4.84-6.0742-7.27-6.0742 0 3.6133 1.3 6.0742 3.72 8.2813 1.11 0 3.55-1.0938 3.55-2.2071"/>
    <path d="m2932.5 63.418c0-1.1133-1.15-2.3633-2.38-3.4961v-1.1914c-1.18 1.1914-1.18 2.3242 0 3.5742 0 1.1133 1.23 1.1133 2.38 1.1133"/>
    <path d="m2544.3 624.56v242.98h-114.69v-242.98h114.69"/>
    <path d="m2780.6 624.56v242.98h-104.21v-242.98h104.21"/>
    <path d="m2735.8 23.496c13.87-3.0469 44.86-5.0391 44.86-5.0391v490.14h-104.21v-469.16s45.21-12.988 59.35-15.938"/>
    <path d="m2781.3 575.62h-165.53v289.55h-12.03l0.05-289.55h-173.28v-12.031h173.28v-477.56l11.98-7.5586v485.12h165.53v12.031"/>
    <path d="m2430.3 508.59h113.53l0.27-378.09-0.14-8.36c-59.25 54.375-96.65 120.08-108.33 197.97-7.28 48.477-5.33 188.48-5.33 188.48"/>
   </g>
  </g>
 </g>
</svg>
