<svg width="53.79mm" height="67.497mm" version="1.1" viewBox="0 0 53.79 67.497" xmlns="http://www.w3.org/2000/svg">
 <g transform="translate(-32.347 -13.839)" fill="#fff">
  <g stroke-width=".24223">
   <circle cx="56.044" cy="53.863" r="1.405"/>
   <circle cx="45.022" cy="50.957" r="1.405"/>
   <circle cx="67.041" cy="52.119" r="1.405"/>
   <path d="m76.319 23.245c-2.0348-3.2702-5.644-5.4502-9.7862-5.4502-1.9379 0-3.7788 0.48447-5.3776 1.3323-2.1317-1.7683-4.8689-2.8099-7.8484-2.8099-6.08 0-11.118 4.3844-12.136 10.15-3.8757 0.96893-6.7583 4.4813-6.7583 8.6477 0 4.9173 3.9968 8.9142 8.9142 8.9142h0.3149v1.3565c0 0.75092 0.6298 1.3807 1.3807 1.3807 0.75092 0 1.3807-0.62981 1.3807-1.3807v-1.8894c0.02422 0 0.02422 0 0.02422-0.02426v-3.9484c0-0.75092 0.62981-1.3807 1.3807-1.3807s1.3807 0.62981 1.3807 1.3807v12.645c0 0.75092 0.62981 1.3807 1.3807 1.3807 0.75092 0 1.3807-0.6298 1.3807-1.3807v-16.448c0-0.75092 0.62981-1.3807 1.3807-1.3807 0.75092 0 1.3807 0.62981 1.3807 1.3807v12.863c0.14534 0.62981 0.67825 1.0901 1.3323 1.0901 0.75092 0 1.3807-0.62981 1.3807-1.3807v-10.44c0-0.75092 0.62981-1.3807 1.3807-1.3807 0.75092 0 1.3807 0.6298 1.3807 1.3807v14.655c0 0.75092 0.62981 1.3807 1.3807 1.3807 0.75092 0 1.3807-0.62981 1.3807-1.3807v-17.102c0-0.75092 0.62981-1.3807 1.3807-1.3807 0.75092 0 1.3807 0.6298 1.3807 1.3807v11.022c0 0.75092 0.62981 1.3807 1.3807 1.3807 0.65403 0 1.2112-0.46024 1.3323-1.0901v-8.8657c0-0.75092 0.62981-1.3807 1.3807-1.3807 0.75092 0 1.3807 0.6298 1.3807 1.3807v5.4745h0.02423v4.4571c0 0.75092 0.62981 1.3807 1.3807 1.3807 0.75092 0 1.3807-0.6298 1.3807-1.3807v-4.2633c5.4018-0.36334 9.6893-4.8689 9.6893-10.368-0.04845-4.6509-3.1248-8.5993-7.3397-9.9073z"/>
  </g>
  <g transform="matrix(.14634 0 0 .14634 -1.7576 55.533)">
   <path d="m252.7 57.7c2.3 1.2 5.8 2.4 9.5 2.4 3.9 0 6-1.6 6-4.1 0-2.4-1.8-3.7-6.3-5.3-6.3-2.2-10.4-5.7-10.4-11.2 0-6.5 5.4-11.4 14.3-11.4 4.3 0 7.4 0.9 9.7 1.9l-1.9 6.9c-1.5-0.7-4.2-1.8-7.9-1.8s-5.5 1.7-5.5 3.6c0 2.4 2.1 3.5 7 5.3 6.7 2.5 9.8 6 9.8 11.3 0 6.3-4.9 11.7-15.3 11.7-4.3 0-8.6-1.1-10.7-2.3z"/>
   <path d="m290 35.9h-10.2v-7.2h29.2v7.2h-10.3v30.7h-8.7z"/>
   <path d="m318.3 56.8-2.7 9.7h-8.9l11.6-37.8h11.2l11.7 37.8h-9.2l-2.9-9.7zm9.6-6.4-2.4-8c-0.7-2.2-1.3-5.1-1.9-7.3h-0.1c-0.6 2.2-1.1 5.1-1.7 7.3l-2.2 8z"/>
   <path d="m346.3 29.2c2.8-0.4 6.9-0.8 11.4-0.8 5.6 0 9.5 0.8 12.2 3 2.2 1.8 3.5 4.4 3.5 7.9 0 4.8-3.4 8.1-6.7 9.3v0.2c2.6 1.1 4.1 3.6 5.1 7.1 1.2 4.3 2.4 9.2 3.1 10.7h-8.8c-0.6-1.1-1.5-4.2-2.6-8.8-1-4.7-2.6-6-6.1-6.1h-2.6v14.9h-8.5zm8.5 16.3h3.4c4.3 0 6.8-2.1 6.8-5.4 0-3.5-2.4-5.2-6.3-5.3-2.1 0-3.3 0.2-3.9 0.3z"/>
   <path d="m379.6 28.7h8.5v16.7h0.2c0.8-1.5 1.7-2.8 2.6-4.2l8.6-12.6h10.5l-12.5 16.1 13.2 21.7h-10l-9.3-16.3-3.3 4v12.4h-8.5z"/>
   <path d="m414.1 29.2c2.8-0.4 6.9-0.8 11.4-0.8 5.6 0 9.5 0.8 12.2 3 2.2 1.8 3.5 4.4 3.5 7.9 0 4.8-3.4 8.1-6.7 9.3v0.2c2.6 1.1 4.1 3.6 5.1 7.1 1.2 4.3 2.4 9.2 3.1 10.7h-8.8c-0.6-1.1-1.5-4.2-2.6-8.8-1-4.7-2.6-6-6.1-6.1h-2.6v14.9h-8.5zm8.5 16.3h3.4c4.3 0 6.8-2.1 6.8-5.4 0-3.5-2.4-5.2-6.3-5.3-2.1 0-3.3 0.2-3.9 0.3z"/>
   <path d="m469.9 50.6h-13.9v9h15.6v7h-24.1v-37.9h23.4v7h-14.9v7.9h13.9z"/>
   <path d="m509 64.8c-2.6 0.9-7.6 2.1-12.6 2.1-6.9 0-11.9-1.7-15.4-5.1-3.5-3.3-5.4-8.2-5.3-13.8 0.1-12.6 9.2-19.8 21.6-19.8 4.9 0 8.6 1 10.5 1.9l-1.8 6.9c-2.1-0.9-4.7-1.6-8.8-1.6-7.1 0-12.5 4-12.5 12.2 0 7.8 4.9 12.4 11.9 12.4 2 0 3.5-0.2 4.2-0.6v-7.9h-5.8v-6.7h14z"/>
   <path d="m538.2 50.6h-13.9v9h15.6v7h-24.1v-37.9h23.2v7h-14.8v7.9h13.9v7z"/>
   <path d="m545.7 66.6v-37.9h10l7.9 13.9c2.2 4 4.5 8.7 6.2 13h0.2c-0.6-5-0.7-10.1-0.7-15.8v-11.1h7.9v37.8h-9l-8.3-14.5c-2.2-4-4.7-8.9-6.6-13.4l-0.2 0.1c0.2 5 0.3 10.3 0.3 16.5v11.4z"/>
   <path d="m255.9 79.3h45.1v13.7h-28.4v16.9h26.5v13.6h-26.5v29.7h-16.8v-73.9z"/>
   <path d="m330.3 79.3v42.5c0 12.7 4.8 19.2 13.4 19.2 8.8 0 13.6-6.1 13.6-19.2v-42.5h16.6v41.4c0 22.8-11.5 33.6-30.8 33.6-18.6 0-29.6-10.3-29.6-33.8v-41.2z"/>
   <path d="m388.3 79.3h16.8v59.8h29.3v14h-46.1z"/>
   <path d="m444.3 80.3c6.1-1 14.1-1.5 22.6-1.5 14 0 23.1 2.5 30.2 7.9 7.7 5.7 12.5 14.8 12.5 27.8 0 14.1-5.1 23.9-12.3 29.9-7.8 6.5-19.6 9.5-34.1 9.5-8.7 0-14.8-0.5-18.9-1.1zm16.7 60.2c1.4 0.3 3.7 0.3 5.8 0.3 15.1 0.1 25-8.2 25-25.8 0.1-15.3-8.9-23.4-23.2-23.4-3.7 0-6.1 0.3-7.6 0.7z"/>
   <path d="m535.9 134.1-5.3 18.9h-17.3l22.6-73.8h21.9l22.9 73.8h-18l-5.7-18.9zm18.7-12.5-4.6-15.7c-1.3-4.4-2.6-9.9-3.7-14.2h-0.2c-1.1 4.4-2.2 10-3.4 14.2l-4.4 15.7z"/>
  </g>
 </g>
</svg>
