<svg enable-background="new 0 0 600 180" version="1.1" viewBox="0 0 600 180" xml:space="preserve" xmlns="http://www.w3.org/2000/svg"><g fill="#fff">
<circle cx="105.8" cy="164.6" r="5.8"/>
<circle cx="60.3" cy="152.6" r="5.8"/>
<circle cx="151.2" cy="157.4" r="5.8"/>
<path d="m189.5 38.2c-8.4-13.5-23.3-22.5-40.4-22.5-8 0-15.6 2-22.2 5.5-8.8-7.3-20.1-11.6-32.4-11.6-25.1 0-45.9 18.1-50.1 41.9-16 4-27.9 18.5-27.9 35.7 0 20.3 16.5 36.8 36.8 36.8h1.3v5.6c0 3.1 2.6 5.7 5.7 5.7s5.7-2.6 5.7-5.7v-7.8c0.1 0 0.1 0 0.1-0.1v-16.3c0-3.1 2.6-5.7 5.7-5.7s5.7 2.6 5.7 5.7v52.2c0 3.1 2.6 5.7 5.7 5.7s5.7-2.6 5.7-5.7v-67.9c0-3.1 2.6-5.7 5.7-5.7s5.7 2.6 5.7 5.7v53.1c0.6 2.6 2.8 4.5 5.5 4.5 3.1 0 5.7-2.6 5.7-5.7v-43.1c0-3.1 2.6-5.7 5.7-5.7s5.7 2.6 5.7 5.7v60.5c0 3.1 2.6 5.7 5.7 5.7s5.7-2.6 5.7-5.7v-70.6c0-3.1 2.6-5.7 5.7-5.7s5.7 2.6 5.7 5.7v45.5c0 3.1 2.6 5.7 5.7 5.7 2.7 0 5-1.9 5.5-4.5v-36.6c0-3.1 2.6-5.7 5.7-5.7s5.7 2.6 5.7 5.7v22.6h0.1v18.4c0 3.1 2.6 5.7 5.7 5.7s5.7-2.6 5.7-5.7v-17.6c22.3-1.5 40-20.1 40-42.8-0.2-19.2-12.9-35.5-30.3-40.9z"/>

	<path d="m252.7 57.7c2.3 1.2 5.8 2.4 9.5 2.4 3.9 0 6-1.6 6-4.1 0-2.4-1.8-3.7-6.3-5.3-6.3-2.2-10.4-5.7-10.4-11.2 0-6.5 5.4-11.4 14.3-11.4 4.3 0 7.4 0.9 9.7 1.9l-1.9 6.9c-1.5-0.7-4.2-1.8-7.9-1.8s-5.5 1.7-5.5 3.6c0 2.4 2.1 3.5 7 5.3 6.7 2.5 9.8 6 9.8 11.3 0 6.3-4.9 11.7-15.3 11.7-4.3 0-8.6-1.1-10.7-2.3l1.7-7z"/>
	<path d="M290,35.9h-10.2v-7.2H309v7.2h-10.3v30.7H290V35.9z"/>
	<path d="m318.3 56.8-2.7 9.7h-8.9l11.6-37.8h11.2l11.7 37.8h-9.2l-2.9-9.7h-10.8zm9.6-6.4-2.4-8c-0.7-2.2-1.3-5.1-1.9-7.3h-0.1c-0.6 2.2-1.1 5.1-1.7 7.3l-2.2 8h8.3z"/>
	<path d="m346.3 29.2c2.8-0.4 6.9-0.8 11.4-0.8 5.6 0 9.5 0.8 12.2 3 2.2 1.8 3.5 4.4 3.5 7.9 0 4.8-3.4 8.1-6.7 9.3v0.2c2.6 1.1 4.1 3.6 5.1 7.1 1.2 4.3 2.4 9.2 3.1 10.7h-8.8c-0.6-1.1-1.5-4.2-2.6-8.8-1-4.7-2.6-6-6.1-6.1h-2.6v14.9h-8.5v-37.4zm8.5 16.3h3.4c4.3 0 6.8-2.1 6.8-5.4 0-3.5-2.4-5.2-6.3-5.3-2.1 0-3.3 0.2-3.9 0.3v10.4z"/>
	<path d="m379.6 28.7h8.5v16.7h0.2c0.8-1.5 1.7-2.8 2.6-4.2l8.6-12.6h10.5l-12.5 16.1 13.2 21.7h-10l-9.3-16.3-3.3 4v12.4h-8.5v-37.8z"/>
	<path d="m414.1 29.2c2.8-0.4 6.9-0.8 11.4-0.8 5.6 0 9.5 0.8 12.2 3 2.2 1.8 3.5 4.4 3.5 7.9 0 4.8-3.4 8.1-6.7 9.3v0.2c2.6 1.1 4.1 3.6 5.1 7.1 1.2 4.3 2.4 9.2 3.1 10.7h-8.8c-0.6-1.1-1.5-4.2-2.6-8.8-1-4.7-2.6-6-6.1-6.1h-2.6v14.9h-8.5v-37.4zm8.5 16.3h3.4c4.3 0 6.8-2.1 6.8-5.4 0-3.5-2.4-5.2-6.3-5.3-2.1 0-3.3 0.2-3.9 0.3v10.4z"/>
	<path d="M469.9,50.6H456v9h15.6v7h-24.1V28.7h23.4v7H456v7.9h13.9V50.6z"/>
	<path d="m509 64.8c-2.6 0.9-7.6 2.1-12.6 2.1-6.9 0-11.9-1.7-15.4-5.1-3.5-3.3-5.4-8.2-5.3-13.8 0.1-12.6 9.2-19.8 21.6-19.8 4.9 0 8.6 1 10.5 1.9l-1.8 6.9c-2.1-0.9-4.7-1.6-8.8-1.6-7.1 0-12.5 4-12.5 12.2 0 7.8 4.9 12.4 11.9 12.4 2 0 3.5-0.2 4.2-0.6v-7.9h-5.8v-6.7h14v20z"/>
	<path d="m538.2 50.6h-13.9v9h15.6v7h-24.1v-37.9h23.2v7h-14.8v7.9h13.9v7z"/>
	<path d="m545.7 66.6v-37.9h10l7.9 13.9c2.2 4 4.5 8.7 6.2 13h0.2c-0.6-5-0.7-10.1-0.7-15.8v-11.1h7.9v37.8h-9l-8.3-14.5c-2.2-4-4.7-8.9-6.6-13.4l-0.2 0.1c0.2 5 0.3 10.3 0.3 16.5v11.4h-7.7z"/>


	<path d="M255.9,79.3H301V93h-28.4v16.9h26.5v13.6h-26.5v29.7h-16.8V79.3z"/>
	<path d="m330.3 79.3v42.5c0 12.7 4.8 19.2 13.4 19.2 8.8 0 13.6-6.1 13.6-19.2v-42.5h16.6v41.4c0 22.8-11.5 33.6-30.8 33.6-18.6 0-29.6-10.3-29.6-33.8v-41.2h16.8z"/>
	<path d="M388.3,79.3h16.8v59.8h29.3v14h-46.1V79.3z"/>
	<path d="m444.3 80.3c6.1-1 14.1-1.5 22.6-1.5 14 0 23.1 2.5 30.2 7.9 7.7 5.7 12.5 14.8 12.5 27.8 0 14.1-5.1 23.9-12.3 29.9-7.8 6.5-19.6 9.5-34.1 9.5-8.7 0-14.8-0.5-18.9-1.1v-72.5zm16.7 60.2c1.4 0.3 3.7 0.3 5.8 0.3 15.1 0.1 25-8.2 25-25.8 0.1-15.3-8.9-23.4-23.2-23.4-3.7 0-6.1 0.3-7.6 0.7v48.2z"/>
	<path d="m535.9 134.1-5.3 18.9h-17.3l22.6-73.8h21.9l22.9 73.8h-18l-5.7-18.9h-21.1zm18.7-12.5-4.6-15.7c-1.3-4.4-2.6-9.9-3.7-14.2h-0.2c-1.1 4.4-2.2 10-3.4 14.2l-4.4 15.7h16.3z"/>

</g></svg>
